<?xml version="1.0" encoding="UTF-8"?>
<svg id="Layer_1" xmlns="http://www.w3.org/2000/svg" version="1.1" viewBox="0 0 24 24">
  <!-- Generator: Adobe Illustrator 30.1.0, SVG Export Plug-In . SVG Version: 2.1.1 Build 136)  -->
  <defs>
    <style>
      .st0 {
        fill: #035900;
      }
    </style>
  </defs>
  <path class="st0" d="M12.01,2C6.49,2,2.01,6.48,2.01,12s4.48,10,10,10,10-4.48,10-10S17.53,2,12.01,2ZM13.53,8.21s1.5,1.51,3.26,3.26c.15.15.22.34.22.53s-.07.38-.22.53c-1.75,1.75-3.25,3.26-3.25,3.26-.15.15-.34.22-.53.22-.19,0-.38-.07-.53-.22-.29-.29-.29-.77,0-1.06l1.98-1.98h-6.69c-.41,0-.75-.34-.75-.75s.34-.75.75-.75h6.69l-1.98-1.98c-.29-.29-.29-.76,0-1.05.15-.15.34-.22.53-.22.19,0,.38.07.52.22Z"/>
</svg>