<?xml version="1.0" encoding="UTF-8"?>
<svg id="Layer_1" xmlns="http://www.w3.org/2000/svg" version="1.1" viewBox="0 0 24 24">
  <!-- Generator: Adobe Illustrator 30.1.0, SVG Export Plug-In . SVG Version: 2.1.1 Build 136)  -->
  <defs>
    <style>
      .st0 {
        fill: #035900;
      }
    </style>
  </defs>
  <path class="st0" d="M2.02,11.99c0,5.52,4.48,10,10,10s10-4.48,10-10S17.53,2,12.02,2,2.02,6.48,2.02,11.99ZM3.52,11.99C3.52,7.3,7.33,3.49,12.02,3.49s8.5,3.81,8.5,8.5-3.81,8.5-8.5,8.5S3.52,16.68,3.52,11.99ZM8.23,10.47s1.51-1.5,3.26-3.26c.15-.15.34-.22.53-.22s.38.07.53.22c1.75,1.75,3.26,3.25,3.26,3.25.15.15.22.34.22.53,0,.19-.07.38-.22.53-.29.29-.77.29-1.06,0l-1.98-1.98v6.69c0,.41-.34.75-.75.75s-.75-.34-.75-.75v-6.69l-1.98,1.98c-.29.29-.76.29-1.06,0-.15-.15-.22-.34-.22-.53,0-.19.07-.38.22-.52Z"/>
</svg>