<?xml version="1.0" encoding="UTF-8"?>
<svg id="Layer_1" xmlns="http://www.w3.org/2000/svg" version="1.1" viewBox="0 0 24 24">
  <!-- Generator: Adobe Illustrator 30.1.0, SVG Export Plug-In . SVG Version: 2.1.1 Build 136)  -->
  <defs>
    <style>
      .st0 {
        fill: #035900;
      }
    </style>
  </defs>
  <path class="st0" d="M12.01.01C5.39.01.02,5.38.02,12s5.37,11.99,11.99,11.99,11.99-5.37,11.99-11.99S18.63.01,12.01.01ZM13.83,7.46s1.8,1.81,3.91,3.91c.18.18.26.41.26.64s-.08.46-.26.64c-2.1,2.1-3.9,3.91-3.9,3.91-.18.18-.41.26-.64.26s-.46-.08-.64-.26c-.35-.35-.35-.92,0-1.27l2.37-2.37H6.93c-.49,0-.9-.41-.9-.9s.41-.9.9-.9h8.02l-2.37-2.37c-.35-.35-.35-.91,0-1.26.18-.18.41-.26.64-.26s.46.08.62.26h0Z"/>
</svg>