<?xml version="1.0" encoding="UTF-8"?>
<svg id="Layer_1" xmlns="http://www.w3.org/2000/svg" version="1.1" viewBox="0 0 24 24">
  <!-- Generator: Adobe Illustrator 30.1.0, SVG Export Plug-In . SVG Version: 2.1.1 Build 136)  -->
  <defs>
    <style>
      .st0 {
        fill: #035900;
      }

      .st1 {
        fill: #fff;
      }
    </style>
  </defs>
  <rect class="st1" x="4.92" y="5.15" width="13.76" height="14.28"/>
  <path class="st0" d="M.02,12C.02,18.61,5.4,23.99,12.01,23.99s11.99-5.37,11.99-11.99S18.63,0,12.01,0,.02,5.38.02,12ZM7.47,10.17s1.8-1.8,3.91-3.9c.18-.18.41-.26.64-.26s.46.09.64.26c2.1,2.1,3.91,3.9,3.91,3.9.17.17.26.4.26.63s-.09.46-.27.64c-.35.35-.92.35-1.27,0l-2.37-2.37v8.03c0,.5-.4.9-.9.9s-.9-.4-.9-.9v-8.03l-2.37,2.37c-.35.35-.91.34-1.26,0-.18-.18-.27-.41-.27-.64s.09-.46.26-.63h-.01Z"/>
</svg>