<?xml version="1.0" encoding="UTF-8"?>
<svg id="Layer_1" xmlns="http://www.w3.org/2000/svg" version="1.1" viewBox="0 0 24 24">
  <!-- Generator: Adobe Illustrator 30.1.0, SVG Export Plug-In . SVG Version: 2.1.1 Build 136)  -->
  <defs>
    <style>
      .st0 {
        fill: #fffcf9;
      }
    </style>
  </defs>
  <path class="st0" d="M12,0C5.37,0,0,5.37,0,12s5.37,12,12,12,12-5.37,12-12S18.63,0,12,0ZM16.44,16.89c-2.1.14-6.78.14-8.88,0-2.28-.16-2.54-1.27-2.56-4.89.02-3.63.28-4.74,2.56-4.89,2.1-.14,6.78-.14,8.88,0,2.28.16,2.54,1.27,2.56,4.89-.02,3.63-.28,4.74-2.56,4.89ZM10,9.66l4.92,2.34-4.92,2.35v-4.68Z"/>
</svg>